<?xml version="1.0" encoding="UTF-8" standalone="no"?>
<!-- Created with Inkscape (http://www.inkscape.org/) -->

<svg
   xmlns:dc="http://purl.org/dc/elements/1.1/"
   xmlns:cc="http://creativecommons.org/ns#"
   xmlns:rdf="http://www.w3.org/1999/02/22-rdf-syntax-ns#"
   xmlns:svg="http://www.w3.org/2000/svg"
   xmlns="http://www.w3.org/2000/svg"
   xmlns:sodipodi="http://sodipodi.sourceforge.net/DTD/sodipodi-0.dtd"
   xmlns:inkscape="http://www.inkscape.org/namespaces/inkscape"
   id="svg2"
   version="1.1"
   inkscape:version="0.48.4 r9939"
   width="377"
   height="380"
   sodipodi:docname="vombat.svg"
   inkscape:export-filename="/home/luca/Code/CloudCompare-mine-git/plugins/vombat/icons/vombat.png"
   inkscape:export-xdpi="198.79417"
   inkscape:export-ydpi="198.79417">
  <metadata
     id="metadata8">
    <rdf:RDF>
      <cc:Work
         rdf:about="">
        <dc:format>image/svg+xml</dc:format>
        <dc:type
           rdf:resource="http://purl.org/dc/dcmitype/StillImage" />
        <dc:title></dc:title>
      </cc:Work>
    </rdf:RDF>
  </metadata>
  <defs
     id="defs6" />
  <sodipodi:namedview
     pagecolor="#ffffff"
     bordercolor="#666666"
     borderopacity="1"
     objecttolerance="10"
     gridtolerance="10"
     guidetolerance="10"
     inkscape:pageopacity="0"
     inkscape:pageshadow="2"
     inkscape:window-width="1680"
     inkscape:window-height="1016"
     id="namedview4"
     showgrid="false"
     inkscape:zoom="1.2421053"
     inkscape:cx="1009.3334"
     inkscape:cy="487.73476"
     inkscape:window-x="0"
     inkscape:window-y="0"
     inkscape:window-maximized="1"
     inkscape:current-layer="svg2" />
  <path
     style="fill:#000000;fill-opacity:1"
     d="m 818.41715,-7.2860095 c -1.65,-1.0134 -4.9751,-4.0492205 -7.3891,-6.7462705 -2.4139,-2.69704 -37.9821,-38.65372 -79.0404,-79.90372 -41.0582,-41.25 -76.7706,-77.34322 -79.3609,-80.20716 -4.0678,-4.49753 -4.7096,-5.7903 -4.7096,-9.48617 l 0,-4.27901 84.75,-84.83036 c 46.6125,-46.65669 85.9651,-85.47541 87.4503,-86.26382 3.7291,-1.97956 7.749,-1.78264 11.2997,0.55352 1.65,1.0856 27.75,26.93717 58,57.44794 30.25,30.51076 67.9375,68.45728 83.75,84.32559 28.33985,28.43989 28.74995,28.9102 28.74995,32.96874 0,2.8827 -0.7154,4.96488 -2.38585,6.944 -4.9112,5.81886 -168.7748,168.8442305 -170.8988,170.0246605 -3.1753,1.76471 -6.7632,1.57225 -10.2153,-0.54794 z"
     id="path3079"
     inkscape:connector-curvature="0"
     inkscape:export-filename="/home/luca/Code/CloudCompare-mine-git/plugins/vombat/icons/vombat.png"
     inkscape:export-xdpi="198.79417"
     inkscape:export-ydpi="198.79417" />
  <path
     inkscape:connector-curvature="0"
     id="path3905"
     d="m 819.4815,-36.050164 c -1.37982,-0.84746 -4.16045,-3.386177 -6.17917,-5.641595 -2.01863,-2.255411 -31.76268,-32.324325 -66.09784,-66.819801 -34.33508,-34.49547 -64.19972,-64.67857 -66.36587,-67.07355 -3.40171,-3.76108 -3.93842,-4.84216 -3.93842,-7.93285 l 0,-3.57834 70.87252,-70.93972 c 38.97989,-39.01684 71.88865,-71.47915 73.13066,-72.13846 3.11847,-1.65541 6.48013,-1.49074 9.44942,0.46289 1.37982,0.90783 23.20604,22.52631 48.50272,48.04106 25.29669,25.51474 56.81301,57.24767 70.03627,70.51761 23.69931,23.78297 24.04226,24.17627 24.04226,27.57024 0,2.41066 -0.59826,4.1519 -1.99518,5.80694 -4.10701,4.86605 -141.13859,141.196654 -142.91479,142.183793 -2.65536,1.475746 -5.65575,1.3148 -8.54258,-0.458217 z"
     style="fill:#fca602;fill-opacity:1"
     inkscape:export-filename="/home/luca/Code/CloudCompare-mine-git/plugins/vombat/icons/vombat.png"
     inkscape:export-xdpi="198.79417"
     inkscape:export-ydpi="198.79417" />
  <path
     style="fill:#000000"
     d="m 768.24439,348.42975 c -2.62152,-1.95531 -3.94891,-2.02602 -7.83502,-0.41737 -1.12179,0.46437 -1.78364,0.0388 -2.15638,-1.38654 -0.47482,-1.81572 -0.0511,-2.07501 3.61858,-2.21409 2.28601,-0.0866 4.83138,-0.0736 5.65638,0.0291 5.29575,0.65894 8.20542,5.1e-4 6.69083,-1.51408 -0.35337,-0.35338 -1.25728,-0.13228 -2.00867,0.49132 -0.7514,0.62361 -1.58676,0.91325 -1.85636,0.64365 -0.26959,-0.2696 -2.58012,-0.88062 -5.1345,-1.35783 -3.35217,-0.62625 -4.45834,-0.55702 -3.97586,0.24885 0.36766,0.61408 -0.0989,0.49393 -1.03681,-0.26699 -1.56901,-1.27295 -1.44895,-1.57262 1.50232,-3.75 3.34843,-2.47039 6.81905,-3.13159 6.81905,-1.29911 0,0.58706 0.80321,0.81246 1.78491,0.50088 1.25125,-0.39713 2.2977,0.30157 3.5,2.3369 2.20842,3.73855 2.17298,6.37047 -0.11365,8.43984 -2.243,2.02989 -2.06214,2.04595 -5.45482,-0.48454 z"
     id="path3075" />
  <path
     style="fill:#000000"
     d="m 722.92866,308.0609 c -1.37961,-1.37961 -2.2326,-2.95461 -1.89553,-3.5 0.78786,-1.27479 4.49482,-1.29689 4.49482,-0.0268 0,0.53065 0.94191,1.46891 2.09314,2.08503 5.26401,2.81721 10.597,-2.82142 7.35222,-7.77359 -1.49746,-2.2854 -2.00142,-2.4081 -7.34418,-1.788 l -5.73641,0.66578 0.96564,-6.46139 0.96564,-6.46138 4.49154,-0.61563 c 8.05346,-1.10385 10.21241,-0.82174 10.21241,1.33446 0,1.67259 -0.81824,1.99277 -5.75,2.25 -5.47452,0.28553 -5.76543,0.43447 -6.0721,3.10874 -0.30969,2.7006 -0.18914,2.78389 3.12852,2.1615 3.8523,-0.7227 9.03625,1.3743 10.0724,4.07446 1.01044,2.63318 0.65034,7.83437 -0.66062,9.54186 -3.55868,4.63504 -12.33201,5.39044 -16.31749,1.40496 z"
     id="path3073" />
  <path
     style="fill:#000000"
     d="m 770.02226,309.80397 c -0.55313,-0.40408 -2.26996,-2.43062 -3.81518,-4.50342 -3.23112,-4.33432 -4.67913,-4.07816 -4.67913,0.82775 0,3.00371 -0.31769,3.44098 -2.5,3.44098 l -2.5,0 0,-13.06955 c 0,-12.98162 0.0151,-13.0674 2.25,-12.75 1.9986,0.28385 2.30587,1.02636 2.75,6.6455 l 0.5,6.32595 2.93709,-3.07595 c 2.00749,-2.1024 3.88948,-3.07595 5.94617,-3.07595 l 3.00907,0 -3.19616,3.29761 c -1.75789,1.81368 -3.19617,3.73219 -3.19617,4.26335 0,0.53115 1.55874,3.28033 3.46386,6.10927 2.85159,4.23437 3.19065,5.24837 1.91821,5.73665 -1.86293,0.71487 -1.65665,0.72717 -2.88776,-0.17219 z"
     id="path3071" />
  <path
     style="fill:#000000"
     d="m 778.33274,305.81928 c -0.16763,-2.6125 -0.14809,-7.15651 0.0434,-10.0978 0.33572,-5.15589 0.44157,-5.32996 2.94939,-4.85056 1.43064,0.27349 3.6866,0.0846 5.01325,-0.41983 1.65937,-0.63089 3.25443,-0.49686 5.1114,0.42952 2.30443,1.14961 3.17627,1.12071 5.9598,-0.19755 2.90689,-1.37668 3.551,-1.38142 5.93922,-0.0437 2.54408,1.42501 2.69324,1.93846 2.96765,10.21518 0.2718,8.19803 0.16804,8.71476 -1.75,8.71476 -2.09443,0 -2.37852,-0.89123 -2.08236,-6.53264 0.23808,-4.53443 -1.57184,-8.46738 -3.89661,-8.46738 -2.84329,0 -4.05993,2.977 -4.05993,9.93426 0,5.39907 -0.21981,6.06574 -2,6.06574 -1.1,0 -2.04348,-0.5625 -2.09661,-1.25 -0.0531,-0.6875 -0.25252,-3.67119 -0.44306,-6.63042 -0.44437,-6.90117 -0.95363,-8.11958 -3.39376,-8.11958 -2.84984,0 -4.06657,2.97236 -4.06657,9.93426 0,5.34212 -0.23206,6.06574 -1.94521,6.06574 -1.61115,0 -1.99755,-0.81572 -2.25,-4.75 z"
     id="path3069" />
  <path
     style="fill:#000000"
     d="m 719.52795,265.06928 0,-13.5 2.42749,0 c 1.96075,0 3.45089,1.63058 7.75,8.48041 2.92738,4.66422 5.66001,8.48922 6.07251,8.5 0.4125,0.0108 0.75,-3.80541 0.75,-8.48041 0,-8.4 0.0294,-8.5 2.5,-8.5 l 2.5,0 0,13.5 0,13.5 -2.75225,0 c -2.36848,0 -3.43397,-1.11946 -7.64118,-8.02823 -2.6889,-4.41553 -5.27539,-8.26709 -5.74775,-8.55902 -0.47235,-0.29193 -0.85882,3.32077 -0.85882,8.02823 0,8.46295 -0.0281,8.55902 -2.5,8.55902 l -2.5,0 0,-13.5 z"
     id="path3067" />
  <path
     style="fill:#000000"
     d="m 745.34512,268.85468 c -0.17444,-5.38197 -0.17751,-11.4729 -0.007,-13.5354 l 0.31036,-3.75 9.43964,0 c 8.77296,0 9.43963,0.14125 9.43963,2 0,1.80952 -0.66667,2 -7,2 l -7,0 0,3.45228 0,3.45229 6.25,0.29771 c 4.75657,0.22658 6.25,0.65614 6.25,1.79772 0,1.14158 -1.49343,1.57114 -6.25,1.79772 l -6.25,0.29771 0,3.95229 0,3.95228 7.57332,0 c 6.67361,0 7.53354,0.2079 7.23842,1.75 -0.28679,1.49856 -1.72447,1.79101 -10.00615,2.0354 l -9.67124,0.2854 -0.31718,-9.7854 z"
     id="path3065" />
  <path
     style="fill:#000000"
     d="m 771.53873,272.05167 c 2.19407,-3.58469 3.9777,-7.07219 3.96362,-7.75 -0.0141,-0.67782 -1.60647,-3.70739 -3.53865,-6.73239 -3.45959,-5.4163 -3.4788,-5.50529 -1.26242,-5.84733 2.21133,-0.34126 3.56203,0.79488 6.86335,5.77316 l 1.53668,2.31726 2.72751,-4.12155 c 1.97994,-2.99188 3.40883,-4.12154 5.21332,-4.12154 1.36719,0 2.48581,0.24275 2.48581,0.53945 0,0.2967 -1.575,2.87819 -3.5,5.73665 -1.925,2.85846 -3.49857,5.65321 -3.49682,6.21055 0.002,0.55734 1.80032,3.71335 3.99682,7.01335 2.1965,3.3 3.99507,6.3375 3.99682,6.75 0.002,0.4125 -1.1329,0.75 -2.52144,0.75 -1.92296,0 -3.17268,-1.07291 -5.24394,-4.50202 -1.49562,-2.47611 -3.17204,-4.35556 -3.72538,-4.17654 -0.55333,0.17901 -2.05228,2.20492 -3.33098,4.50202 -1.90089,3.4148 -2.85646,4.17654 -5.23922,4.17654 l -2.9143,0 3.98922,-6.51761 z"
     id="path3063" />
  <path
     style="fill:#000000"
     d="m 800.31131,267.38446 -0.28336,-11.31518 -4.25,-0.3075 c -3.43587,-0.24859 -4.25,-0.6796 -4.25,-2.25 0,-1.80561 0.7752,-1.9425 11,-1.9425 10.33333,0 11,0.12121 11,2 0,1.66391 -0.66667,2 -3.96725,2 l -3.96725,0 -0.28275,11.25 c -0.2703,10.75483 -0.38032,11.26387 -2.49939,11.56518 -2.16295,0.30754 -2.2235,0.0411 -2.5,-11 z"
     id="path3061" />
  <path
     style="fill:#000000"
     d="m 715.71777,243.60219 c -8.47531,-5.31715 -8.04714,-19.95261 0.7163,-24.48436 10.58835,-5.47545 21.37151,4.27927 18.11191,16.38449 -2.25112,8.36004 -11.83895,12.48471 -18.82821,8.09987 z"
     id="path3059" />
  <path
     style="fill:#000000"
     d="m 726.26658,240.0398 c 6.40513,-4.48633 3.58921,-18.47052 -3.7193,-18.47052 -4.33208,0 -7.51933,4.23875 -7.51933,10 0,7.98592 5.74672,12.3172 11.23863,8.47052 z"
     id="path3057" />
  <path
     style="fill:#000000"
     d="m 773.27795,244.83034 -4.75,-0.37064 0,-12.94521 0,-12.94521 8.5,0 c 7.16667,0 8.81373,0.31373 10.5,2 2.40635,2.40635 2.57509,5.70705 0.41384,8.09521 -1.45592,1.60877 -1.40768,1.9941 0.58739,4.69258 5.43992,7.35789 -1.46098,12.54932 -15.25123,11.47327 z"
     id="path3055" />
  <path
     style="fill:#000000"
     d="m 783.52795,239.56928 c 2.42367,-2.42367 2.48868,-3.36846 0.37708,-5.48006 -1.09938,-1.09938 -2.95429,-1.52566 -5.75,-1.32143 -3.70311,0.27052 -4.16042,0.59267 -4.45165,3.13596 -0.17852,1.55896 -0.0801,3.47146 0.21861,4.25 0.83386,2.173 7.23816,1.78333 9.60596,-0.58447 z"
     id="path3053" />
  <path
     style="fill:#000000"
     d="m 782.59369,228.5341 c 4.70674,-2.51897 0.28625,-7.49564 -6.007,-6.76279 -2.61337,0.30433 -3.85756,3.27389 -2.66921,6.3707 0.64027,1.66851 5.85118,1.904 8.67621,0.39209 z"
     id="path3051" />
  <path
     style="fill:#000000"
     d="m 821.78176,244.72614 c -0.75171,-0.46458 -1.28328,-4.52177 -1.46646,-11.1928 l -0.28735,-10.46406 -4.25,-0.3075 c -3.43587,-0.24859 -4.25,-0.6796 -4.25,-2.25 0,-1.80445 0.77414,-1.9425 10.89301,-1.9425 8.42264,0 11.01504,0.31801 11.4311,1.40223 0.78232,2.0387 -0.18414,2.59777 -4.49078,2.59777 l -3.83333,0 0,10.37756 c 0,10.4212 -0.97634,13.49116 -3.74619,11.7793 z"
     id="path3049" />
  <path
     style="fill:#000000"
     d="m 838.28575,243.5934 c -1.38156,-1.08673 -2.75011,-2.88673 -3.04124,-4 -0.42152,-1.61189 -0.0464,-2.02412 1.84188,-2.02412 1.34774,0 2.83318,0.86324 3.44156,2 1.34863,2.51995 8.09228,2.79866 10.06957,0.41618 2.08575,-2.51318 -0.0628,-4.64668 -6.64811,-6.6016 -6.42069,-1.90605 -8.42146,-3.76663 -8.42146,-7.8314 0,-4.36489 4.13904,-7.3678 10.15536,-7.3678 4.34126,0 5.47543,0.41664 7.48085,2.74808 1.30008,1.51144 2.36379,3.17297 2.36379,3.6923 0,1.69013 -3.94897,0.99527 -6,-1.05576 -2.31634,-2.31634 -4.86389,-2.55123 -7.41761,-0.6839 -3.37602,2.4686 -1.54175,4.85619 5.13365,6.68225 3.41883,0.93522 6.90633,2.27328 7.75,2.97347 1.56724,1.30069 2.02751,5.57844 0.91278,8.48338 -1.71631,4.47262 -13.09242,6.13112 -17.62102,2.56892 z"
     id="path3047" />
  <path
     style="fill:#000000"
     d="m 682.17995,242.87742 c -0.28582,-0.99448 -1.89945,-6.35802 -3.58584,-11.91898 -3.70927,-12.23153 -3.80444,-13.6369 -0.89449,-13.20871 2.22995,0.32812 2.38242,0.64757 5.28358,11.06955 0.88034,3.1625 1.97296,5.75 2.42803,5.75 0.45508,0 1.60524,-3.6 2.55592,-8 1.66812,-7.72053 1.82789,-8 4.57375,-8 2.66326,0 2.9191,0.36779 3.99977,5.75 2.78521,13.87154 2.95311,13.83533 6.95523,-1.5 0.92607,-3.54852 1.51541,-4.25 3.57059,-4.25 1.3538,0 2.46146,0.27496 2.46146,0.61102 0,0.33606 -1.65815,6.20793 -3.68477,13.04859 -3.51823,11.87545 -3.79809,12.42408 -6.19204,12.13898 -2.19621,-0.26154 -2.71714,-1.13299 -4.1988,-7.02397 -2.78253,-11.06319 -2.97442,-11.12678 -5.35498,-1.77462 -1.9765,7.76475 -2.39003,8.52665 -4.78069,8.80814 -1.83577,0.21615 -2.77218,-0.23165 -3.13672,-1.5 z"
     id="path3045" />
  <path
     style="fill:#000000"
     d="m 738.52795,231.56928 0,-13 3.86105,0 3.86105,0 2.28718,8.03259 c 1.25795,4.41793 2.65149,8.25775 3.09676,8.53294 0.44527,0.2752 1.98079,-3.33947 3.41228,-8.03259 l 2.60271,-8.53294 3.93948,0 3.93949,0 0,13 0,13 -2.46107,0 c -2.40523,0 -2.46762,-0.19851 -2.75,-8.75 l -0.28893,-8.75 -2.81051,8.75 c -2.63401,8.20048 -2.98341,8.75 -5.5635,8.75 -2.58192,0 -2.89661,-0.49709 -5.06461,-8 -1.2714,-4.4 -2.70533,-8 -3.18651,-8 -0.48118,0 -0.87487,3.6 -0.87487,8 0,7.33333 -0.16667,8 -2,8 -1.89744,0 -2,-0.66667 -2,-13 z"
     id="path3043" />
  <path
     style="fill:#000000"
     d="m 796.07048,232.00395 c 2.45161,-6.91094 4.45747,-12.78945 4.45747,-13.06336 0,-0.27392 1.43076,-0.35702 3.17946,-0.18467 3.10157,0.30568 3.284,0.6073 7.4474,12.31336 2.34737,6.6 4.29162,12.3375 4.32054,12.75 0.0289,0.4125 -1.06383,0.75 -2.42835,0.75 -1.81235,0 -2.65004,-0.67373 -3.10841,-2.5 -0.57267,-2.28173 -1.10036,-2.5 -6.0438,-2.5 -4.8573,0 -5.51445,0.25804 -6.36684,2.5 -0.66153,1.73994 -1.70515,2.5 -3.43272,2.5 l -2.48222,0 4.45747,-12.56533 z"
     id="path3041" />
  <path
     style="fill:#000000"
     d="m 807.52795,235.25078 c 0,-1.68896 -3.26687,-10.6815 -3.88045,-10.6815 -0.87591,0 -3.11955,6.73623 -3.11955,9.36602 0,1.20074 0.92801,1.63398 3.5,1.63398 1.925,0 3.5,-0.14332 3.5,-0.3185 z"
     id="path3039" />
  <g
     id="g3081"
     transform="matrix(1.1241089,0,0,1.1241089,-32.832243,-360.07302)"
     inkscape:export-filename="/home/luca/Code/CloudCompare-mine-git/plugins/vombat/icons/vombat.png"
     inkscape:export-xdpi="198.79417"
     inkscape:export-ydpi="198.79417">
    <path
       id="path3037"
       d="m 724.10931,208.98132 c -2.70526,-0.73686 -5.19978,-1.79464 -5.5434,-2.35062 -0.34362,-0.55598 -0.7308,-3.88302 -0.86041,-7.39342 l -0.23565,-6.38254 5.20247,-0.61615 c 2.86137,-0.33889 5.68694,-1.14414 6.27905,-1.78944 0.78436,-0.85481 0.73807,-0.9822 -0.17054,-0.46934 -2.21002,1.24745 -10.89797,0.82331 -13.86892,-0.67708 -1.58618,-0.80105 -6.79828,-1.72023 -11.58246,-2.04264 -4.83872,-0.32608 -10.05254,-1.28639 -11.75,-2.16418 -4.46896,-2.31099 -3.72781,-1.0347 0.91418,1.57424 3.23894,1.82038 3.70058,2.4277 2.51906,3.31398 -2.34489,1.75897 -2.33493,5.93415 0.0153,6.3974 1.1,0.21682 2.81325,1.11581 3.80721,1.99775 1.73527,1.5397 1.72467,1.63406 -0.26635,2.37059 -3.5122,1.29925 -14.38034,1.9628 -17.46435,1.06629 -4.41065,-1.28216 -5.24851,-3.33395 -3.65686,-8.95515 2.42648,-8.56962 2.43727,-10.02254 0.0966,-12.99789 -5.81417,-7.39061 -7.31703,-17.58391 -4.02408,-27.29384 1.21239,-3.575 2.56989,-10.38201 3.01665,-15.12669 0.89074,-9.45966 2.62098,-13.78675 7.36779,-18.42585 1.71787,-1.67889 5.59841,-5.68539 8.62341,-8.90331 12.18072,-12.957573 30.6566,-20.922466 51.5,-22.201486 13.16241,-0.80769 20.98648,1.173125 42.01285,10.636365 8.79293,3.957391 18.46215,8.023541 21.48715,9.035891 4.86961,1.62967 12.09235,3.9978 17.25,5.65579 1.18493,0.3809 1.75,0.0319 1.75,-1.08073 0,-1.63447 5.68538,-8.58998 7.02139,-8.58998 1.20922,0 1.91424,9.73766 0.94874,13.10413 -0.5073,1.76887 -1.91959,4.27762 -3.13841,5.575 l -2.21605,2.35887 -1.22662,-2.769 -1.22661,-2.769 -0.0812,3.75 c -0.0926,4.27544 1.546,4.92438 4.41878,1.75 0.99549,-1.1 2.61266,-2 3.59371,-2 1.78641,0 2.22329,-1.61677 3.24262,-12 0.18898,-1.925 0.41561,-0.68024 0.50363,2.76613 0.15335,6.00405 0.33382,6.4223 4.31504,10 10.31848,9.27265 11.26006,10.59357 15.67505,21.99027 2.38153,6.14758 5.25278,12.35048 6.38056,13.78422 1.70045,2.16177 1.94614,3.48807 1.43914,7.76891 -0.75292,6.35724 -2.95852,9.52196 -8.67018,12.44047 -5.27977,2.69783 -9.90222,2.88212 -12.54101,0.5 -1.06621,-0.9625 -2.87006,-1.84284 -4.00857,-1.95632 -4.47476,-0.446 -7.42954,-2.2279 -7.49338,-4.51893 l -0.0634,-2.27475 -0.88346,2.19342 c -1.00525,2.49578 -4.11115,2.36744 -9.42564,-0.38947 -6.29583,-3.26599 -6.57932,-3.36261 -6.3177,-2.15318 0.28077,1.2979 -3.25819,2.59593 -7.49643,2.74955 -2.0992,0.0761 -2.75,-0.36451 -2.75,-1.86178 0,-1.45023 1.06885,-2.24926 4.10094,-3.06572 5.03682,-1.35627 4.61598,-2.29829 -0.54747,-1.22548 -3.21668,0.66832 -3.94343,1.34436 -5.12328,4.76573 -0.75618,2.19281 -1.67877,6.01193 -2.05019,8.48693 -0.90176,6.00888 -4.85447,16.7538 -7.08496,19.25951 -1.76965,1.98799 -7.18715,4.74049 -9.33031,4.74049 -0.63588,0 -0.83794,-0.82411 -0.4792,-1.95442 0.35349,-1.11374 -0.10043,-3.0544 -1.05527,-4.51168 -1.11173,-1.6967 -1.47173,-3.57654 -1.0698,-5.58618 0.61361,-3.06806 -0.96128,-6.92216 -2.85101,-6.97703 -1.91658,-0.0557 -7.65793,-6.08181 -9.11358,-9.56566 -1.84334,-4.41174 -2.68041,-18.51508 -1.31485,-22.15337 0.56803,-1.51341 2.96346,-4.77666 5.32319,-7.25166 3.89482,-4.08513 8.59575,-10.83189 8.59575,-12.33665 0,-1.79385 -3.24824,1.13048 -6.28395,5.65731 -1.9103,2.84864 -5.26155,7.09485 -7.44722,9.43603 -3.77583,4.04446 -3.9523,4.5181 -3.53953,9.5 0.23893,2.88382 1.29758,8.51083 2.35256,12.50447 1.05498,3.99363 1.91814,7.44538 1.91814,7.67054 0,1.26399 -6.84183,1.59253 -10.69543,0.51358 -2.95653,-0.82778 -4.71749,-0.91481 -5.14891,-0.25448 -0.36061,0.55195 -2.94448,1.26739 -5.74192,1.58986 l -5.08626,0.58633 1.39978,-5.1835 c 1.91344,-7.08558 1.1903,-18.01031 -1.54541,-23.34707 -1.17387,-2.28996 -4.12959,-5.79854 -6.56825,-7.79685 -2.56101,-2.09855 -5.12316,-5.35583 -6.06561,-7.71124 -2.06378,-5.15788 -3.14423,-4.36988 -1.33735,0.97537 0.84991,2.51429 3.25877,5.7119 6.49459,8.62119 4.3594,3.91947 5.47385,5.69161 7.30976,11.62354 3.04651,9.84349 2.21052,15.07778 -4.10712,25.71543 -3.91976,6.60009 -4.90787,9.16707 -4.90787,12.75 0,3.98109 0.25331,4.48786 2.25,4.50145 2.75764,0.0188 4.19537,0.94123 5.04156,3.23469 0.49141,1.33189 0.1156,1.75525 -1.57294,1.77196 -1.22024,0.0121 -4.18026,0.91208 -6.57782,2 -2.39757,1.08792 -4.64757,1.92219 -5,1.85393 -0.35244,-0.0683 -2.85419,-0.72699 -5.55944,-1.46385 z"
       style="fill:#000000"
       inkscape:connector-curvature="0" />
    <g
       id="g3894"
       style="fill:#fca602;fill-opacity:1">
      <path
         inkscape:connector-curvature="0"
         style="fill:#fca602;fill-opacity:1"
         d="m 856.21505,174.95544 c 2.00121,-0.53667 4.42942,-4.99864 4.23682,-7.78538 -0.0418,-0.60543 -0.64053,0.47422 -1.33042,2.39922 -0.92438,2.57932 -2.15387,3.81397 -4.67392,4.69356 -3.5035,1.22285 -2.1652,1.74726 1.76752,0.6926 z"
         id="path3035" />
      <path
         inkscape:connector-curvature="0"
         style="fill:#fca602;fill-opacity:1"
         d="m 852.5066,168.23525 c 0.0117,-0.45872 -1.77865,0.5916 -3.97865,2.33403 -2.2,1.74243 -4,3.38443 -4,3.64888 0,0.84924 7.95648,-5.11705 7.97865,-5.98291 z"
         id="path3033" />
      <path
         inkscape:connector-curvature="0"
         style="fill:#fca602;fill-opacity:1"
         d="m 845.87653,157.81428 c 0.60953,-0.98624 -2.84853,-5.245 -4.25887,-5.245 -1.75963,0 -1.24855,3.80811 0.66029,4.9199 2.12686,1.23878 2.98593,1.31639 3.59858,0.3251 z"
         id="path3031" />
      <path
         inkscape:connector-curvature="0"
         style="fill:#fca602;fill-opacity:1"
         d="m 850.02795,154.56928 c 0.33992,-0.55 -0.29269,-1 -1.4058,-1 -1.11311,0 -2.53684,-0.95856 -3.16384,-2.13013 -1.10623,-2.06701 -1.07105,-2.08182 1.18732,-0.5 1.28003,0.89657 2.6772,1.63013 3.10483,1.63013 1.31259,0 0.86195,-2.68502 -0.66307,-3.95067 -0.79231,-0.65756 -1.21686,-1.77852 -0.94344,-2.49102 0.27341,-0.71251 -0.31584,-1.5799 -1.30944,-1.92753 -0.99361,-0.34764 -2.4317,-0.91516 -3.19576,-1.26116 -0.7838,-0.35493 -1.12407,-0.20011 -0.78082,0.35529 0.33461,0.5414 -0.50275,2.02822 -1.8608,3.30404 -1.35805,1.27582 -2.46918,2.79136 -2.46918,3.36787 0,0.57651 0.70052,0.0481 1.5567,-1.17431 2.21643,-3.1644 4.84765,-2.9697 4.02751,0.29801 -0.34794,1.38629 -0.15589,3.41129 0.42677,4.5 1.11549,2.08431 4.4396,2.67748 5.48902,0.97948 z"
         id="path3029" />
      <path
         inkscape:connector-curvature="0"
         style="fill:#fca602;fill-opacity:1"
         d="m 822.52795,147.45895 c 0,-1.03494 -0.85275,-4.471 -1.895,-7.63569 -1.04224,-3.16469 -2.37641,-7.77898 -2.96481,-10.25398 -1.03093,-4.33643 -1.05401,-4.25159 -0.63481,2.33374 0.29717,4.66836 1.1204,7.94273 2.59805,10.33361 1.89734,3.06997 2.02384,3.96449 1.02981,7.28228 -1.54522,5.15748 -1.41294,6.11029 0.37292,2.68606 0.82161,-1.57537 1.49384,-3.71107 1.49384,-4.74602 z"
         id="path3027" />
      <path
         inkscape:connector-curvature="0"
         style="fill:#fca602;fill-opacity:1"
         d="m 854.19212,152.00206 c 0.33077,-0.86197 0.0916,-2.07697 -0.53139,-2.7 -0.82633,-0.82633 -1.13278,-0.83028 -1.13278,-0.0146 0,0.61502 -0.27314,1.83002 -0.60699,2.7 -0.33443,0.87151 -0.0958,1.58179 0.53139,1.58179 0.6261,0 1.409,-0.70525 1.73977,-1.56722 z"
         id="path3025" />
      <path
         inkscape:connector-curvature="0"
         style="fill:#fca602;fill-opacity:1"
         d="m 819.52136,143.31928 c 0.0158,-1.79976 -2.81748,-0.53607 -3.36312,1.5 -1.157,4.31732 -0.60258,5.22806 1.36971,2.25 1.09275,-1.65 1.98979,-3.3375 1.99341,-3.75 z"
         id="path3023" />
      <path
         inkscape:connector-curvature="0"
         style="fill:#fca602;fill-opacity:1"
         d="m 838.51264,130.76026 c -0.0132,-1.45727 -0.14929,-1.48367 -0.98469,-0.19098 -1.2656,1.95837 -1.2656,3.28218 0,2.5 0.55,-0.33992 0.99311,-1.37898 0.98469,-2.30902 z"
         id="path3021" />
      <path
         inkscape:connector-curvature="0"
         style="fill:#fca602;fill-opacity:1"
         d="m 822.40311,117.08651 c 1.5346,-1.87265 1.52399,-1.90446 -0.1911,-0.57283 -1.81984,1.41297 -4.71917,6.2551 -4.64402,7.75594 0.022,0.43981 0.75334,-0.55034 1.62516,-2.20034 0.87181,-1.65 2.3163,-3.89225 3.20996,-4.98277 z"
         id="path3019" />
    </g>
    <path
       id="path3015"
       d="m 799.75508,200.73082 c -1.014,-0.64355 -0.94724,-1.58716 0.32823,-4.6398 l 1.60109,-3.83195 3.67178,3.68348 c 3.05056,3.0603 3.41799,3.84528 2.17177,4.6398 -1.83063,1.16709 -6.04115,1.24752 -7.77287,0.14847 z"
       style="fill:#000000"
       inkscape:connector-curvature="0" />
  </g>
  <path
     style="fill:#000000"
     d="m 1143.1452,254.7571 c -1.65,-0.83374 -7.275,-5.99591 -12.5,-11.47149 -5.225,-5.47559 -43.098,-43.61349 -84.1621,-84.7509 -65.80025,-65.917623 -74.74546,-75.239643 -75.36443,-78.539003 -0.41414,-2.20758 -0.23197,-4.87926 0.44397,-6.51113 0.63047,-1.52207 39.50756,-41.12674 86.39366,-88.01037 76.1084,-76.10448 85.6444,-85.30741 88.9516,-85.844087 2.1349,-0.34645 5.0051,-0.0623 6.7749,0.670797 1.7795,0.73709 38.5738,37.02667 87.5042,86.30398 89.3403,89.97363 86.7726,87.12172 85.0147,94.42385 -0.4481,1.86122 -16.8053,18.8726 -50.3601,52.374053 -27.333,27.28962 -50.8214,50.91462 -52.1964,52.5 l -2.5,2.88252 2.6445,-2.32521 c 3.6407,-3.20115 4.4711,-1.13882 0.9138,2.26936 -2.213,2.12017 -3.4058,2.58035 -5.2066,2.00878 -2.0328,-0.64518 -2.1685,-0.53954 -1.0453,0.8138 0.78,0.93989 0.9096,1.79073 0.3275,2.15047 -0.5297,0.32739 -1.1983,0.03 -1.4857,-0.66097 -0.6599,-1.58635 -3.6633,1.8891 -3.6164,4.1849 0.025,1.24626 0.3262,1.1696 1.5,-0.38226 0.8075,-1.06762 1.4682,-1.46022 1.4682,-0.87244 0,1.97738 -2.5341,3.37947 -3.8072,2.10644 -0.6377,-0.63774 -1.4915,-0.82757 -1.8972,-0.42183 -0.4057,0.40574 -0.1007,1.13138 0.6778,1.61253 1.1156,0.6895 0.4771,1.8431 -3.0142,5.44563 -4.4809,4.62365 -6.6501,5.81368 -5.5976,3.0708 0.6644,-1.73129 -0.9056,-2.04694 -1.9307,-0.3882 -0.3779,0.6115 -0.067,1.49522 0.691,1.96384 1.1282,0.69757 1.0391,1.17584 -0.4918,2.6382 -1.3631,1.302 -1.9955,1.44733 -2.3334,0.53616 -0.7058,-1.90378 -2.0939,-1.49851 -3.4253,1 -1.045,1.96126 -1.0056,2.0907 0.3069,1.00868 2.1803,-1.79746 3.1258,-0.25226 1.1689,1.91017 -2.0492,2.26431 -3.3472,2.34525 -3.3472,0.20871 0,-1.3288 -0.2715,-1.39713 -1.5,-0.37756 -1.9761,1.64001 -1.9059,3 0.155,3 1.4883,0 1.4727,0.20141 -0.155,2 -1.9304,2.133 -4.5,2.68153 -4.5,0.96057 0,-0.59976 -0.5901,-0.49401 -1.3951,0.25 -1.4602,1.34967 -1.1953,2.78943 0.5131,2.78943 0.55,0 0.6789,-0.51953 0.2865,-1.15451 -0.4635,-0.74999 -0.2718,-0.88152 0.5471,-0.37538 0.9214,0.56944 0.4333,1.60648 -1.8134,3.85323 -3.3029,3.30292 -5.6636,3.01967 -2.6438,-0.31721 0.9986,-1.10337 1.3871,-2.00613 0.8635,-2.00613 -1.6162,0 -8.5995,7.73268 -7.5622,8.37373 0.5373,0.33207 1.2383,-0.3959 1.5578,-1.61773 0.4608,-1.76208 0.8362,-1.96625 1.8152,-0.98726 0.979,0.97899 0.4271,2.06086 -2.6687,5.23126 -2.4188,2.47706 -4.2583,3.64176 -4.8372,3.06279 -0.579,-0.57896 -0.3122,-1.55624 0.7015,-2.56993 0.8996,-0.89965 1.6357,-1.93303 1.6357,-2.29642 0,-0.36339 -4.6125,3.92087 -10.25,9.52056 -12.3709,12.28797 -15.291,13.76585 -21.25,10.75478 z"
     id="path3013"
     inkscape:connector-curvature="0" />
  <path
     style="fill:#000000"
     d="m 137.26104,198.39048 c -0.58065,-9.25462 -1.48837,-10.31277 -8.88604,-10.35868 -2.81875,-0.0175 -6.60122,-0.32704 -8.40549,-0.6879 -2.16899,-0.4338 -3.06213,-0.30278 -2.63601,0.38669 0.35446,0.57354 -0.0256,1.59888 -0.84451,2.27855 -2.31075,1.91775 -1.80515,4.69469 0.98215,5.39426 2.94814,0.73994 5.33605,4.38127 3.32198,5.06572 -3.93521,1.33731 -13.69675,2.45819 -16.75593,1.92403 -7.813301,-1.36429 -9.614178,-4.68312 -6.53719,-12.04739 1.877448,-4.49337 1.922939,-8.74986 0.109599,-10.2548 -2.11693,-1.7569 -5.31812,-9.99082 -6.064215,-15.59805 -0.515739,-3.876 -0.110936,-6.81266 1.791975,-13 1.35202,-4.3961 2.690546,-11.42798 2.974503,-15.62641 0.649344,-9.60081 2.057403,-12.30023 11.918148,-22.84856 12.19061,-13.040643 20.24866,-17.981269 38.72599,-23.744056 7.32702,-2.285183 10.32445,-2.665993 21.044,-2.67355 14.55865,-0.01026 16.32404,0.488009 40.87595,11.537007 8.59323,3.867179 19.67405,8.278089 24.62405,9.802029 4.95,1.52394 9.74685,3.09356 10.65966,3.48804 1.14446,0.49459 1.8435,0.13799 2.2519,-1.14877 C 247.0102,108.3925 253.5096,101 254.56924,101 c 1.11213,0 3.43475,2.88029 4.42688,5.48979 0.55213,1.45222 1.00388,4.74772 1.00388,7.32332 0,4.52906 0.25463,4.9294 7.75,12.1849 7.12361,6.89565 8.02243,8.22941 11.12059,16.50199 1.85383,4.95 4.66633,11.35568 6.25,14.23485 3.18741,5.79481 3.42904,7.6986 1.70674,13.44715 -2.53803,8.47116 -15.36834,14.6295 -21.51277,10.32577 -1.17175,-0.82072 -3.06028,-1.63412 -4.19673,-1.80756 -1.13646,-0.17344 -2.37789,-0.62693 -2.75873,-1.00777 C 257.97826,177.3116 256.84167,177 255.83333,177 c -1.00833,0 -1.83422,-0.3375 -1.83532,-0.75 -0.001,-0.4125 -1.35866,-0.84498 -3.01681,-0.96106 -1.65816,-0.11609 -4.46977,-0.85541 -6.24802,-1.64294 -5.19637,-2.30131 -6.63231,-2.61822 -7.26017,-1.60233 -0.32508,0.52598 -2.25199,0.96247 -4.28203,0.96998 -6.57481,0.0243 -8.08768,0.8654 -8.71768,4.84654 -0.31679,2.00189 -1.07602,5.60466 -1.68717,8.00614 l -1.11119,4.36633 4.23648,3.91182 c 4.63767,4.28228 4.80525,5.86774 0.77094,7.29361 -1.92765,0.6813 -3.54772,0.51464 -5.91829,-0.60882 -3.0898,-1.46432 -3.42424,-1.42589 -6.26407,0.71979 -4.44597,3.35922 -9.6354,3.68473 -8.81644,0.55302 0.27297,-1.04386 -0.27436,-3.07412 -1.21629,-4.51168 -1.13268,-1.72869 -1.51096,-3.62196 -1.11712,-5.59114 0.68393,-3.41966 -0.0479,-5.99534 -1.70714,-6.00793 -0.62865,-0.005 -2.72553,-1.50907 -4.65971,-3.34288 -2.25303,-2.13611 -4.22938,-3.18259 -5.5,-2.91228 -6.16047,1.31057 -7.44416,1.35514 -9.36846,0.32529 -1.36383,-0.7299 -2.73629,-0.80267 -3.86484,-0.2049 -0.9625,0.50981 -4.675,1.08814 -8.25,1.28518 -5.07239,0.27957 -6.82586,0.79752 -7.98368,2.35826 -3.05589,4.11934 -5.01632,9.03826 -5.01632,12.58644 0,3.21584 0.34351,3.73226 2.81086,4.22573 1.72723,0.34545 3.26695,1.56318 3.99392,3.15872 1.27594,2.80038 1.16069,2.91621 -3.80478,3.82391 -12.37319,3.81401 -21.85609,4.54692 -22.73896,-8.90432 z"
     id="path3007" />
  <path
     style="fill:#ffffff"
     d="m 264,155.05902 c 0,-0.51754 -0.45,-1.2191 -1,-1.55902 -0.55,-0.33992 -1,0.0835 -1,0.94098 0,0.85746 0.45,1.55902 1,1.55902 0.55,0 1,-0.42344 1,-0.94098 z"
     id="path3005" />
  <path
     style="fill:#ffffff"
     d="M 269.54112,149.06653 C 269.17858,148.47994 268.40342,148 267.81854,148 c -0.6631,0 -0.58723,0.57378 0.20152,1.52417 1.37154,1.6526 2.59733,1.2838 1.52106,-0.45764 z"
     id="path3003" />
  <path
     style="fill:#ffffff"
     d="m 256.66228,105.75 c -0.27741,-0.6875 -0.50439,-0.125 -0.50439,1.25 0,1.375 0.22698,1.9375 0.50439,1.25 0.27741,-0.6875 0.27741,-1.8125 0,-2.5 z"
     id="path3001" />
  <path
     style="fill:#000000"
     d="m 1651.4746,247.99745 c -1.65,-1.0134 -4.9751,-4.04922 -7.389,-6.74627 -2.414,-2.69704 -37.9822,-38.65372 -79.0404,-79.90372 -41.0583,-41.25 -76.7707,-77.34322 -79.361,-80.20716 -4.0678,-4.49753 -4.7096,-5.7903 -4.7096,-9.48617 l 0,-4.27901 84.75,-84.83036 c 46.6125,-46.656694 85.9652,-85.47542 87.4503,-86.26383 3.7291,-1.97955 7.749,-1.78264 11.2997,0.55352 1.65,1.0856 27.75,26.937174 58,57.447941 30.25,30.510769 67.9375,68.457289 83.75,84.325599 28.3399,28.43989 28.75,28.9102 28.75,32.96874 0,2.8827 -0.7154,4.96488 -2.3858,6.944 -4.9113,5.81886 -168.7749,168.84423 -170.8989,170.02466 -3.1753,1.76471 -6.7632,1.57225 -10.2153,-0.54794 z m 92.3684,-88.95018 c 46.2158,-45.8151 84.3043,-84.16852 84.6411,-85.22982 0.3369,-1.0613 0.2475,-2.55486 -0.1985,-3.31904 -1.2784,-2.19018 -117.7768,-119.552301 -144.8272,-145.90095 -13.4104,-13.0625 -24.9615,-23.75 -25.6692,-23.75 -1.3744,0 -168.2511,166.25629 -169.9489,169.31706 -0.7347,1.32461 -0.5824,2.4664 0.5621,4.21305 0.8634,1.3178 27.5812,28.62512 59.3728,60.68294 31.7916,32.05782 68.819,69.4638 82.2832,83.1244 21.2219,21.53144 24.8315,24.79254 27.1181,24.5 1.9521,-0.24973 24.4808,-21.9911 86.6665,-83.63764 z m -85.152,69.66066 c -2.6215,-1.95531 -3.9489,-2.02602 -7.835,-0.41737 -1.1218,0.46437 -1.7836,0.0388 -2.1564,-1.38654 -0.4748,-1.81572 -0.051,-2.07501 3.6186,-2.21409 2.286,-0.0866 4.8314,-0.0736 5.6564,0.0291 5.2958,0.65894 8.2054,5.1e-4 6.6908,-1.51408 -0.3533,-0.35338 -1.2572,-0.13228 -2.0086,0.49132 -0.7514,0.62361 -1.5868,0.91325 -1.8564,0.64365 -0.2696,-0.2696 -2.5801,-0.88062 -5.1345,-1.35783 -3.3522,-0.62625 -4.4583,-0.55702 -3.9759,0.24885 0.3677,0.61408 -0.099,0.49393 -1.0368,-0.26699 -1.569,-1.27295 -1.4489,-1.57262 1.5024,-3.75 3.3484,-2.47039 6.819,-3.13159 6.819,-1.29911 0,0.58706 0.8032,0.81246 1.7849,0.50088 1.2513,-0.39713 2.2977,0.30157 3.5,2.3369 2.2084,3.73855 2.173,6.37047 -0.1136,8.43984 -2.243,2.02989 -2.0622,2.04595 -5.4549,-0.48454 z m -45.3157,-40.36885 c -1.3796,-1.37961 -2.2326,-2.95461 -1.8955,-3.5 0.7878,-1.27479 4.4948,-1.29689 4.4948,-0.0268 0,0.53065 0.9419,1.46891 2.0931,2.08503 5.2641,2.81721 10.597,-2.82142 7.3523,-7.77359 -1.4975,-2.2854 -2.0015,-2.4081 -7.3442,-1.788 l -5.7364,0.66578 0.9656,-6.46139 0.9657,-6.46138 4.4915,-0.61563 c 8.0535,-1.10385 10.2124,-0.82174 10.2124,1.33446 0,1.67259 -0.8182,1.99277 -5.75,2.25 -5.4745,0.28553 -5.7654,0.43447 -6.0721,3.10874 -0.3097,2.7006 -0.1891,2.78389 3.1285,2.1615 3.8523,-0.7227 9.0363,1.3743 10.0724,4.07446 1.0105,2.63318 0.6504,7.83437 -0.6606,9.54186 -3.5587,4.63504 -12.332,5.39044 -16.3175,1.40496 z m 47.0936,1.74307 c -0.5531,-0.40408 -2.2699,-2.43062 -3.8152,-4.50342 -3.2311,-4.33432 -4.6791,-4.07816 -4.6791,0.82775 0,3.00371 -0.3177,3.44098 -2.5,3.44098 l -2.5,0 0,-13.06955 c 0,-12.98162 0.015,-13.0674 2.25,-12.75 1.9986,0.28385 2.3059,1.02636 2.75,6.6455 l 0.5,6.32595 2.9371,-3.07595 c 2.0075,-2.1024 3.8895,-3.07595 5.9462,-3.07595 l 3.009,0 -3.1961,3.29761 c -1.7579,1.81368 -3.1962,3.73219 -3.1962,4.26335 0,0.53115 1.5587,3.28033 3.4639,6.10927 2.8516,4.23437 3.1906,5.24837 1.9182,5.73665 -1.863,0.71487 -1.6567,0.72717 -2.8878,-0.17219 z m 8.3105,-3.98469 c -0.1676,-2.6125 -0.1481,-7.15651 0.043,-10.0978 0.3357,-5.15589 0.4416,-5.32996 2.9494,-4.85056 1.4306,0.27349 3.6866,0.0846 5.0132,-0.41983 1.6594,-0.63089 3.2545,-0.49686 5.1114,0.42952 2.3045,1.14961 3.1763,1.12071 5.9598,-0.19755 2.9069,-1.37668 3.551,-1.38142 5.9393,-0.0437 2.544,1.42501 2.6932,1.93846 2.9676,10.21518 0.2718,8.19803 0.168,8.71476 -1.75,8.71476 -2.0944,0 -2.3785,-0.89123 -2.0824,-6.53264 0.2381,-4.53443 -1.5718,-8.46738 -3.8966,-8.46738 -2.8433,0 -4.0599,2.977 -4.0599,9.93426 0,5.39907 -0.2198,6.06574 -2,6.06574 -1.1,0 -2.0435,-0.5625 -2.0966,-1.25 -0.053,-0.6875 -0.2525,-3.67119 -0.4431,-6.63042 -0.4443,-6.90117 -0.9536,-8.11958 -3.3937,-8.11958 -2.8499,0 -4.0666,2.97236 -4.0666,9.93426 0,5.34212 -0.2321,6.06574 -1.9452,6.06574 -1.6112,0 -1.9976,-0.81572 -2.25,-4.75 z m -58.8048,-40.75 0,-13.5 2.4275,0 c 1.9607,0 3.4509,1.63058 7.75,8.48041 2.9274,4.66422 5.66,8.48922 6.0725,8.5 0.4125,0.0108 0.75,-3.80541 0.75,-8.48041 0,-8.4 0.029,-8.5 2.5,-8.5 l 2.5,0 0,13.5 0,13.5 -2.7522,0 c -2.3685,0 -3.434,-1.11946 -7.6412,-8.02823 -2.6889,-4.41553 -5.2754,-8.26709 -5.7478,-8.55902 -0.4723,-0.29193 -0.8588,3.32077 -0.8588,8.02823 0,8.46295 -0.028,8.55902 -2.5,8.55902 l -2.5,0 0,-13.5 z m 25.8172,3.7854 c -0.1745,-5.38197 -0.1775,-11.4729 -0.01,-13.5354 l 0.3103,-3.75 9.4397,0 c 8.7729,0 9.4396,0.14125 9.4396,2 0,1.80952 -0.6667,2 -7,2 l -7,0 0,3.45228 0,3.45229 6.25,0.29771 c 4.7566,0.22658 6.25,0.65614 6.25,1.79772 0,1.14158 -1.4934,1.57114 -6.25,1.79772 l -6.25,0.29771 0,3.95229 0,3.95228 7.5733,0 c 6.6736,0 7.5336,0.2079 7.2384,1.75 -0.2867,1.49856 -1.7244,1.79101 -10.0061,2.0354 l -9.6713,0.2854 -0.3171,-9.7854 z m 26.1936,3.19699 c 2.1941,-3.58469 3.9777,-7.07219 3.9636,-7.75 -0.014,-0.67782 -1.6065,-3.70739 -3.5386,-6.73239 -3.4596,-5.4163 -3.4788,-5.50529 -1.2625,-5.84733 2.2114,-0.34126 3.5621,0.79488 6.8634,5.77316 l 1.5367,2.31726 2.7275,-4.12155 c 1.9799,-2.99188 3.4088,-4.12154 5.2133,-4.12154 1.3672,0 2.4858,0.24275 2.4858,0.53945 0,0.2967 -1.575,2.87819 -3.5,5.73665 -1.925,2.85846 -3.4986,5.65321 -3.4968,6.21055 0,0.55734 1.8003,3.71335 3.9968,7.01335 2.1965,3.3 3.9951,6.3375 3.9968,6.75 0,0.4125 -1.1329,0.75 -2.5214,0.75 -1.923,0 -3.1727,-1.07291 -5.244,-4.50202 -1.4956,-2.47611 -3.172,-4.35556 -3.7253,-4.17654 -0.5534,0.17901 -2.0523,2.20492 -3.331,4.50202 -1.9009,3.4148 -2.8565,4.17654 -5.2392,4.17654 l -2.9143,0 3.9892,-6.51761 z m 28.7726,-4.66721 -0.2834,-11.31518 -4.25,-0.3075 c -3.4359,-0.24859 -4.25,-0.6796 -4.25,-2.25 0,-1.80561 0.7752,-1.9425 11,-1.9425 10.3333,0 11,0.12121 11,2 0,1.66391 -0.6667,2 -3.9672,2 l -3.9673,0 -0.2827,11.25 c -0.2703,10.75483 -0.3804,11.26387 -2.4994,11.56518 -2.163,0.30754 -2.2235,0.0411 -2.5,-11 z m -84.5936,-23.78227 c -8.4753,-5.31715 -8.0471,-19.95261 0.7163,-24.48436 10.5884,-5.47545 21.3715,4.27927 18.1119,16.38449 -2.2511,8.36004 -11.8389,12.48471 -18.8282,8.09987 z m 10.5488,-3.56239 c 6.4052,-4.48633 3.5892,-18.47052 -3.7193,-18.47052 -4.332,0 -7.5193,4.23875 -7.5193,10 0,7.98592 5.7467,12.3172 11.2386,8.47052 z m 47.0114,4.79054 -4.75,-0.37064 0,-12.94521 0,-12.94521 8.5,0 c 7.1667,0 8.8137,0.31373 10.5,2 2.4064,2.40635 2.5751,5.70705 0.4138,8.09521 -1.4559,1.60877 -1.4076,1.9941 0.5874,4.69258 5.44,7.35789 -1.4609,12.54932 -15.2512,11.47327 z m 10.25,-5.26106 c 2.4237,-2.42367 2.4887,-3.36846 0.3771,-5.48006 -1.0994,-1.09938 -2.9543,-1.52566 -5.75,-1.32143 -3.7031,0.27052 -4.1604,0.59267 -4.4517,3.13596 -0.1785,1.55896 -0.08,3.47146 0.2186,4.25 0.8339,2.173 7.2382,1.78333 9.606,-0.58447 z m -0.9343,-11.03518 c 4.7068,-2.51897 0.2863,-7.49564 -6.007,-6.76279 -2.6133,0.30433 -3.8575,3.27389 -2.6692,6.3707 0.6403,1.66851 5.8512,1.904 8.6762,0.39209 z m 39.1881,16.19204 c -0.7517,-0.46458 -1.2833,-4.52177 -1.4664,-11.1928 l -0.2874,-10.46406 -4.25,-0.3075 c -3.4359,-0.24859 -4.25,-0.6796 -4.25,-2.25 0,-1.80445 0.7741,-1.9425 10.893,-1.9425 8.4227,0 11.0151,0.31801 11.4311,1.40223 0.7823,2.0387 -0.1841,2.59777 -4.4908,2.59777 l -3.8333,0 0,10.37756 c 0,10.4212 -0.9763,13.49116 -3.7462,11.7793 z m 16.504,-1.13274 c -1.3816,-1.08673 -2.7501,-2.88673 -3.0412,-4 -0.4216,-1.61189 -0.046,-2.02412 1.8418,-2.02412 1.3478,0 2.8332,0.86324 3.4416,2 1.3486,2.51995 8.0923,2.79866 10.0696,0.41618 2.0857,-2.51318 -0.063,-4.64668 -6.6481,-6.6016 -6.4207,-1.90605 -8.4215,-3.76663 -8.4215,-7.8314 0,-4.36489 4.139,-7.3678 10.1554,-7.3678 4.3412,0 5.4754,0.41664 7.4808,2.74808 1.3001,1.51144 2.3638,3.17297 2.3638,3.6923 0,1.69013 -3.949,0.99527 -6,-1.05576 -2.3163,-2.31634 -4.8639,-2.55123 -7.4176,-0.6839 -3.376,2.4686 -1.5418,4.85619 5.1336,6.68225 3.4189,0.93522 6.9064,2.27328 7.75,2.97347 1.5673,1.30069 2.0276,5.57844 0.9128,8.48338 -1.7163,4.47262 -13.0924,6.13112 -17.621,2.56892 z m -156.1058,-0.71598 c -0.2858,-0.99448 -1.8994,-6.35802 -3.5858,-11.91898 -3.7093,-12.23153 -3.8045,-13.6369 -0.8945,-13.20871 2.2299,0.32812 2.3824,0.64757 5.2836,11.06955 0.8803,3.1625 1.9729,5.75 2.428,5.75 0.4551,0 1.6052,-3.6 2.5559,-8 1.6681,-7.72053 1.8279,-8 4.5738,-8 2.6632,0 2.9191,0.36779 3.9997,5.75 2.7852,13.87154 2.9531,13.83533 6.9553,-1.5 0.926,-3.54852 1.5154,-4.25 3.5705,-4.25 1.3538,0 2.4615,0.27496 2.4615,0.61102 0,0.33606 -1.6581,6.20793 -3.6848,13.04859 -3.5182,11.87545 -3.7981,12.42408 -6.192,12.13898 -2.1962,-0.26154 -2.7171,-1.13299 -4.1988,-7.02397 -2.7825,-11.06319 -2.9744,-11.12678 -5.355,-1.77462 -1.9765,7.76475 -2.39,8.52665 -4.7807,8.80814 -1.8358,0.21615 -2.7722,-0.23165 -3.1367,-1.5 z m 56.348,-11.30814 0,-13 3.8611,0 3.861,0 2.2872,8.03259 c 1.2579,4.41793 2.6515,8.25775 3.0967,8.53294 0.4453,0.2752 1.9808,-3.33947 3.4123,-8.03259 l 2.6027,-8.53294 3.9395,0 3.9395,0 0,13 0,13 -2.4611,0 c -2.4052,0 -2.4676,-0.19851 -2.75,-8.75 l -0.2889,-8.75 -2.8105,8.75 c -2.634,8.20048 -2.9834,8.75 -5.5635,8.75 -2.5819,0 -2.8966,-0.49709 -5.0646,-8 -1.2714,-4.4 -2.7053,-8 -3.1865,-8 -0.4812,0 -0.8749,3.6 -0.8749,8 0,7.33333 -0.1667,8 -2,8 -1.8974,0 -2,-0.66667 -2,-13 z m 57.5425,0.43467 c 2.4516,-6.91094 4.4575,-12.78945 4.4575,-13.06336 0,-0.27392 1.4308,-0.35702 3.1795,-0.18467 3.1015,0.30568 3.284,0.6073 7.4474,12.31336 2.3473,6.6 4.2916,12.3375 4.3205,12.75 0.029,0.4125 -1.0638,0.75 -2.4284,0.75 -1.8123,0 -2.65,-0.67373 -3.1084,-2.5 -0.5726,-2.28173 -1.1003,-2.5 -6.0438,-2.5 -4.8573,0 -5.5144,0.25804 -6.3668,2.5 -0.6615,1.73994 -1.7051,2.5 -3.4327,2.5 l -2.4822,0 4.4574,-12.56533 z m 11.4575,3.24683 c 0,-1.68896 -3.2669,-10.6815 -3.8804,-10.6815 -0.876,0 -3.1196,6.73623 -3.1196,9.36602 0,1.20074 0.928,1.63398 3.5,1.63398 1.925,0 3.5,-0.14332 3.5,-0.3185 z M 1614.556,89.2595 c -2.7053,-0.73686 -5.1998,-1.79464 -5.5434,-2.35062 -0.3437,-0.55598 -0.7308,-3.88302 -0.8604,-7.39342 l -0.2357,-6.38254 5.2025,-0.61615 c 2.8613,-0.33889 5.6869,-1.14414 6.279,-1.78944 0.7844,-0.85481 0.7381,-0.9822 -0.1705,-0.46934 -2.21,1.24745 -10.898,0.82331 -13.8689,-0.67708 -1.5862,-0.80105 -6.7983,-1.72023 -11.5825,-2.04264 -4.8387,-0.32608 -10.0525,-1.28639 -11.75,-2.16418 -4.469,-2.31099 -3.7278,-1.0347 0.9142,1.57424 3.2389,1.82038 3.7006,2.4277 2.519,3.31398 -2.3448,1.75897 -2.3349,5.93415 0.015,6.3974 1.1,0.21682 2.8133,1.11581 3.8073,1.99775 1.7352,1.5397 1.7246,1.63406 -0.2664,2.37059 -3.5122,1.29925 -14.3803,1.9628 -17.4643,1.06629 -4.4107,-1.28216 -5.2486,-3.33395 -3.6569,-8.95515 2.4265,-8.56962 2.4373,-10.02254 0.097,-12.99789 -5.8142,-7.39061 -7.3171,-17.58391 -4.0241,-27.29384 1.2124,-3.575 2.5699,-10.38201 3.0166,-15.12669 0.8908,-9.45966 2.621,-13.78675 7.3678,-18.42585 1.7179,-1.67889 5.5984,-5.68539 8.6234,-8.90331 12.1808,-12.957574 30.6566,-20.922467 51.5,-22.201487 13.1625,-0.80769 20.9865,1.173125 42.0129,10.636365 8.7929,3.957392 18.4621,8.023542 21.4871,9.035892 4.8697,1.62967 12.0924,3.9978 17.25,5.65579 1.185,0.3809 1.75,0.0319 1.75,-1.08073 0,-1.63447 5.6854,-8.58998 7.0214,-8.58998 1.2093,0 1.9143,9.73766 0.9488,13.10413 -0.5073,1.76887 -1.9196,4.27762 -3.1384,5.575 l -2.2161,2.35887 -1.2266,-2.769 -1.2266,-2.769 -0.081,3.75 c -0.093,4.27544 1.546,4.92438 4.4188,1.75 0.9955,-1.1 2.6126,-2 3.5937,-2 1.7864,0 2.2233,-1.61677 3.2426,-12 0.189,-1.925 0.4156,-0.68024 0.5036,2.76613 0.1534,6.00405 0.3338,6.4223 4.3151,10 10.3184,9.27265 11.26,10.59357 15.675,21.99027 2.3815,6.14758 5.2528,12.35048 6.3806,13.78422 1.7004,2.16177 1.9461,3.48807 1.4391,7.76891 -0.7529,6.35724 -2.9585,9.52196 -8.6702,12.44047 -5.2797,2.69783 -9.9022,2.88212 -12.541,0.5 -1.0662,-0.9625 -2.87,-1.84284 -4.0085,-1.95632 -4.4748,-0.446 -7.4296,-2.2279 -7.4934,-4.51893 l -0.063,-2.27475 -0.8835,2.19342 c -1.0052,2.49578 -4.1111,2.36744 -9.4256,-0.38947 -6.2959,-3.26599 -6.5793,-3.36261 -6.3177,-2.15318 0.2807,1.2979 -3.2582,2.59593 -7.4965,2.74955 -2.0992,0.0761 -2.75,-0.36451 -2.75,-1.86178 0,-1.45023 1.0689,-2.24926 4.101,-3.06572 5.0368,-1.35627 4.616,-2.29829 -0.5475,-1.22548 -3.2167,0.66832 -3.9434,1.34436 -5.1233,4.76573 -0.7561,2.19281 -1.6787,6.01193 -2.0502,8.48693 -0.9017,6.00888 -4.8544,16.7538 -7.0849,19.25951 -1.7697,1.98799 -7.1872,4.74049 -9.3303,4.74049 -0.6359,0 -0.838,-0.82411 -0.4792,-1.95442 0.3535,-1.11374 -0.1005,-3.0544 -1.0553,-4.51168 -1.1117,-1.6967 -1.4717,-3.57654 -1.0698,-5.58618 0.6136,-3.06806 -0.9613,-6.92216 -2.851,-6.97703 -1.9166,-0.0557 -7.6579,-6.08181 -9.1136,-9.56566 -1.8433,-4.41174 -2.6804,-18.51508 -1.3148,-22.15337 0.568,-1.51341 2.9634,-4.77666 5.3232,-7.25166 3.8948,-4.08513 8.5957,-10.83189 8.5957,-12.33665 0,-1.79385 -3.2482,1.13048 -6.2839,5.65731 -1.9103,2.84864 -5.2616,7.09485 -7.4473,9.43603 -3.7758,4.04446 -3.9523,4.5181 -3.5395,9.5 0.2389,2.88382 1.2976,8.51083 2.3526,12.50447 1.0549,3.99363 1.9181,7.44538 1.9181,7.67054 0,1.26399 -6.8418,1.59253 -10.6954,0.51358 -2.9566,-0.82778 -4.7175,-0.91481 -5.1489,-0.25448 -0.3606,0.55195 -2.9445,1.26739 -5.742,1.58986 l -5.0862,0.58633 1.3998,-5.1835 c 1.9134,-7.08558 1.1903,-18.01031 -1.5454,-23.34707 -1.1739,-2.28996 -4.1296,-5.79854 -6.5683,-7.79685 -2.561,-2.09855 -5.1232,-5.35583 -6.0656,-7.71124 -2.0638,-5.15788 -3.1442,-4.36988 -1.3374,0.97537 0.85,2.51429 3.2588,5.7119 6.4946,8.62119 4.3594,3.91947 5.4739,5.69161 7.3098,11.62354 3.0465,9.84349 2.2105,15.07778 -4.1071,25.71543 -3.9198,6.60009 -4.9079,9.16707 -4.9079,12.75 0,3.98109 0.2533,4.48786 2.25,4.50145 2.7576,0.0188 4.1954,0.94123 5.0416,3.23469 0.4914,1.33189 0.1156,1.75525 -1.573,1.77196 -1.2202,0.0121 -4.1802,0.91208 -6.5778,2 -2.3976,1.08792 -4.6476,1.92219 -5,1.85393 -0.3524,-0.0683 -2.8542,-0.72699 -5.5594,-1.46385 z m 132.1057,-34.02588 c 2.0012,-0.53667 4.4294,-4.99864 4.2368,-7.78538 -0.042,-0.60543 -0.6405,0.47422 -1.3304,2.39922 -0.9244,2.57932 -2.1539,3.81397 -4.6739,4.69356 -3.5035,1.22285 -2.1652,1.74726 1.7675,0.6926 z m -3.7084,-6.72019 c 0.012,-0.45872 -1.7787,0.5916 -3.9787,2.33403 -2.2,1.74243 -4,3.38443 -4,3.64888 0,0.84924 7.9565,-5.11705 7.9787,-5.98291 z m -6.6301,-10.42097 c 0.6095,-0.98624 -2.8485,-5.245 -4.2589,-5.245 -1.7596,0 -1.2485,3.80811 0.6603,4.9199 2.1269,1.23878 2.9859,1.31639 3.5986,0.3251 z m 4.1514,-3.245 c 0.3399,-0.55 -0.2927,-1 -1.4058,-1 -1.1131,0 -2.5368,-0.95856 -3.1638,-2.13013 -1.1063,-2.06701 -1.0711,-2.08182 1.1873,-0.5 1.28,0.89657 2.6772,1.63013 3.1048,1.63013 1.3126,0 0.862,-2.68502 -0.6631,-3.95067 -0.7923,-0.65756 -1.2168,-1.77852 -0.9434,-2.49102 0.2734,-0.71251 -0.3158,-1.5799 -1.3094,-1.92753 -0.9936,-0.34764 -2.4317,-0.91516 -3.1958,-1.26116 -0.7838,-0.35493 -1.1241,-0.20011 -0.7808,0.35529 0.3346,0.5414 -0.5028,2.02822 -1.8608,3.30404 -1.3581,1.27582 -2.4692,2.79136 -2.4692,3.36787 0,0.57651 0.7005,0.0481 1.5567,-1.17431 2.2164,-3.1644 4.8477,-2.9697 4.0275,0.29801 -0.3479,1.38629 -0.1559,3.41129 0.4268,4.5 1.1155,2.08431 4.4396,2.67748 5.489,0.97948 z m -27.5,-7.11033 c 0,-1.03494 -0.8527,-4.471 -1.895,-7.63569 -1.0422,-3.16469 -2.3764,-7.77898 -2.9648,-10.25398 -1.0309,-4.33643 -1.054,-4.25159 -0.6348,2.33374 0.2971,4.66836 1.1204,7.94273 2.598,10.33361 1.8974,3.06997 2.0239,3.96449 1.0298,7.28228 -1.5452,5.15748 -1.4129,6.11029 0.373,2.68606 0.8216,-1.57537 1.4938,-3.71107 1.4938,-4.74602 z m 31.6642,4.54311 c 0.3307,-0.86197 0.092,-2.07697 -0.5314,-2.7 -0.8263,-0.82633 -1.1328,-0.83028 -1.1328,-0.01457 0,0.61502 -0.2731,1.83002 -0.607,2.7 -0.3344,0.87151 -0.096,1.58179 0.5314,1.58179 0.6261,0 1.409,-0.70525 1.7398,-1.56722 z m -34.6708,-8.68278 c 0.016,-1.79976 -2.8175,-0.53607 -3.3631,1.5 -1.157,4.31732 -0.6026,5.22806 1.3697,2.25 1.0928,-1.65 1.9898,-3.3375 1.9934,-3.75 z m 18.9913,-12.55902 c -0.013,-1.45727 -0.1493,-1.48367 -0.9847,-0.19098 -1.2656,1.95837 -1.2656,3.28218 0,2.5 0.55,-0.33992 0.9931,-1.37898 0.9847,-2.30902 z m -16.1095,-13.67375 c 1.5346,-1.87265 1.524,-1.90446 -0.1911,-0.57283 -1.8199,1.41297 -4.7192,6.2551 -4.6441,7.75594 0.022,0.43981 0.7534,-0.55034 1.6252,-2.20034 0.8718,-1.65 2.3163,-3.89225 3.21,-4.98277 z M 1690.2017,81.009 c -1.014,-0.64355 -0.9472,-1.58716 0.3283,-4.6398 l 1.6011,-3.83195 3.6717,3.68348 c 3.0506,3.0603 3.418,3.84528 2.1718,4.6398 -1.8306,1.16709 -6.0411,1.24752 -7.7729,0.14847 z"
     id="path3124"
     inkscape:connector-curvature="0" />
</svg>
